<svg width="40" height="40" viewBox="0 0 40 40" fill="none" xmlns="http://www.w3.org/2000/svg">
<path d="M20 40C31.0457 40 40 31.0457 40 20C40 8.9543 31.0457 0 20 0C8.9543 0 0 8.9543 0 20C0 31.0457 8.9543 40 20 40Z" fill="#FF6B6B"/>
<path d="M40 20H0C0 31.0457 8.9543 40 20 40C31.0457 40 40 31.0457 40 20Z" fill="#FF1F3D"/>
<path d="M14.5312 31.3281C14.3489 31.3281 14.1661 31.2857 13.9978 31.1996C13.6059 30.9993 13.3594 30.5963 13.3594 30.1562V9.84375C13.3594 9.40367 13.6059 9.0007 13.9977 8.80039C14.3895 8.60007 14.8605 8.63609 15.2173 8.89374L29.2798 19.05C29.5849 19.2703 29.7656 19.6237 29.7656 20C29.7656 20.3762 29.5849 20.7297 29.2798 20.95L15.2173 31.1062C15.0138 31.2533 14.7731 31.3281 14.5312 31.3281Z" fill="#F9F9F9"/>
<path d="M13.3594 20V30.1562C13.3594 30.5963 13.6059 30.9993 13.9977 31.1996C14.166 31.2857 14.3489 31.3281 14.5311 31.3281C14.773 31.3281 15.0138 31.2533 15.2173 31.1063L29.2798 20.95C29.5848 20.7297 29.7656 20.3762 29.7656 20H13.3594Z" fill="#E2DFF4"/>
</svg>
