<svg width="40" height="40" viewBox="0 0 40 40" fill="none" xmlns="http://www.w3.org/2000/svg">
<path d="M36.7578 16.7578C35.2724 16.7578 34.0181 17.7622 33.6359 19.1272C33.1995 18.9595 32.8655 18.5747 32.7773 18.0896L32.6905 17.6228C32.2599 15.3132 31.2175 13.1921 29.6638 11.4411L31.4162 9.68875C31.9223 9.99922 32.517 10.1785 33.153 10.1785C34.9899 10.1785 36.4845 8.68406 36.4845 6.84703C36.4845 5.01 34.9899 3.51562 33.1529 3.51562C31.3159 3.51562 29.8214 5.01008 29.8214 6.84711C29.8214 7.48305 30.0008 8.07781 30.3113 8.58391L28.559 10.3362C26.8074 8.78133 24.6892 7.73883 22.3834 7.30891L21.9076 7.22234C21.4247 7.13445 21.0404 6.80047 20.8728 6.36414C22.2378 5.98187 23.2422 4.72758 23.2422 3.24219C23.2422 1.45445 21.7877 0 20 0C18.2123 0 16.7578 1.45445 16.7578 3.24219C16.7578 4.72695 17.7614 5.98086 19.1255 6.36359C18.9747 6.75297 18.6509 7.06578 18.2366 7.18797C17.8227 7.31008 17.5863 7.74461 17.7084 8.15836C17.8305 8.57227 18.2651 8.80852 18.6787 8.68656C19.1951 8.53414 19.6465 8.24398 19.9973 7.86383C20.417 8.31828 20.9812 8.6418 21.6277 8.75945L22.1002 8.84547C24.3471 9.26437 26.3957 10.3467 28.0245 11.9755C29.6518 13.6028 30.7341 15.6546 31.1544 17.9087L31.2405 18.3721C31.3579 19.0172 31.6803 19.5805 32.1332 19.9999C31.6803 20.4193 31.3578 20.9827 31.2405 21.6277L31.1545 22.1001C30.7355 24.347 29.6532 26.3956 28.0245 28.0244C26.3957 29.6531 24.3472 30.7355 22.1034 31.1538L21.6278 31.2404C20.9828 31.3577 20.4195 31.6802 20.0002 32.133C19.5812 31.6802 19.0186 31.358 18.3749 31.2409L17.9092 31.1545C15.6547 30.7341 13.6028 29.6518 11.9755 28.0245C10.3467 26.3957 9.26437 24.3472 8.84601 22.1034L8.75945 21.6278C8.64211 20.9828 8.31969 20.4195 7.86687 20.0002C8.31961 19.5812 8.6418 19.0186 8.75891 18.3749L8.84539 17.9092C9.2657 15.6547 10.348 13.6028 11.9754 11.9755C12.1811 11.7697 12.3969 11.5697 12.6168 11.3809C12.9441 11.0998 12.9817 10.6066 12.7006 10.2792C12.4195 9.95188 11.9264 9.91438 11.5989 10.1954C11.5455 10.2413 11.4925 10.2879 11.4396 10.3348L9.68859 8.58383C9.99906 8.07773 10.1784 7.48305 10.1784 6.84703C10.1785 5.01008 8.68406 3.51562 6.84711 3.51562C5.01016 3.51562 3.51562 5.01008 3.51562 6.84711C3.51562 8.68414 5.01008 10.1786 6.84711 10.1786C7.48305 10.1786 8.07781 9.99922 8.58391 9.68883L10.3363 11.4412C8.7825 13.1922 7.74008 15.3133 7.30937 17.6234L7.22227 18.0925C7.13438 18.5754 6.80039 18.9597 6.36406 19.1273C5.98187 17.7622 4.72758 16.7578 3.24219 16.7578C1.45445 16.7578 0 18.2123 0 20C0 21.7877 1.45445 23.2422 3.24219 23.2422C4.72758 23.2422 5.98187 22.2378 6.36406 20.8728C6.80039 21.0404 7.13438 21.4247 7.22227 21.9077L7.30945 22.3866C7.73883 24.6895 8.78125 26.8074 10.3361 28.559L8.58383 30.3113C8.07773 30.0008 7.48305 29.8215 6.84703 29.8215C5.01008 29.8215 3.51562 31.3159 3.51562 33.1529C3.51562 34.9899 5.01008 36.4844 6.84711 36.4844C8.68414 36.4844 10.1786 34.9899 10.1786 33.1529C10.1786 32.517 9.99922 31.9222 9.68883 31.4161L11.4412 29.6638C13.1923 31.2174 15.3134 32.2599 17.6235 32.6906L18.0926 32.7777C18.5755 32.8656 18.9598 33.1996 19.1273 33.6359C17.7623 34.018 16.758 35.2724 16.758 36.7578C16.758 38.5455 18.2124 40 20.0002 40C21.7879 40 23.2423 38.5455 23.2423 36.7578C23.2423 35.2724 22.238 34.018 20.873 33.6359C21.0405 33.1996 21.4248 32.8656 21.9078 32.7777L22.3868 32.6905C24.6897 32.2612 26.8076 31.2188 28.5591 29.6639L30.3114 31.4162C30.0009 31.9223 29.8216 32.517 29.8216 33.153C29.8216 34.9899 31.316 36.4845 33.153 36.4845C34.9899 36.4844 36.4844 34.9899 36.4844 33.1529C36.4844 31.3159 34.9899 29.8214 33.1529 29.8214C32.517 29.8214 31.9222 30.0008 31.4161 30.3112L29.6638 28.5589C31.2187 26.8073 32.2612 24.6891 32.6911 22.3833L32.7777 21.9075C32.8655 21.4246 33.1995 21.0403 33.6359 20.8727C34.018 22.2377 35.2723 23.2421 36.7577 23.2421C38.5455 23.2421 39.9999 21.7877 39.9999 19.9999C39.9999 18.2122 38.5455 16.7578 36.7578 16.7578ZM18.3203 3.24219C18.3203 2.31602 19.0738 1.5625 20 1.5625C20.9262 1.5625 21.6797 2.31602 21.6797 3.24219C21.6797 4.16836 20.9262 4.92188 20 4.92188C19.0738 4.92188 18.3203 4.16836 18.3203 3.24219ZM33.1529 5.07812C34.1284 5.07812 34.9219 5.87164 34.9219 6.84711C34.9219 7.8225 34.1284 8.61609 33.1529 8.61609C32.1775 8.61609 31.3839 7.82258 31.3839 6.84711C31.3839 5.87164 32.1775 5.07812 33.1529 5.07812ZM6.84711 8.61602C5.87164 8.61602 5.07812 7.8225 5.07812 6.84711C5.07812 5.87164 5.87164 5.07812 6.84711 5.07812C7.8225 5.07812 8.61609 5.87164 8.61609 6.84711C8.61602 7.8225 7.8225 8.61602 6.84711 8.61602ZM3.24219 21.6797C2.31602 21.6797 1.5625 20.9262 1.5625 20C1.5625 19.0738 2.31602 18.3203 3.24219 18.3203C4.16836 18.3203 4.92188 19.0738 4.92188 20C4.92188 20.9262 4.16836 21.6797 3.24219 21.6797ZM6.84711 34.9219C5.87164 34.9219 5.07812 34.1284 5.07812 33.1529C5.07812 32.1775 5.87164 31.3839 6.84711 31.3839C7.8225 31.3839 8.61609 32.1774 8.61609 33.1529C8.61602 34.1284 7.8225 34.9219 6.84711 34.9219ZM21.6797 36.7578C21.6797 37.684 20.9262 38.4375 20 38.4375C19.0738 38.4375 18.3203 37.684 18.3203 36.7578C18.3203 35.8316 19.0738 35.0781 20 35.0781C20.9262 35.0781 21.6797 35.8316 21.6797 36.7578ZM33.1529 31.384C34.1283 31.384 34.9219 32.1775 34.9219 33.153C34.9219 34.1284 34.1284 34.9219 33.1529 34.9219C32.1775 34.9219 31.3839 34.1284 31.3839 33.1529C31.3839 32.1775 32.1775 31.384 33.1529 31.384ZM36.7578 21.6797C35.8316 21.6797 35.0781 20.9262 35.0781 20C35.0781 19.0738 35.8316 18.3203 36.7578 18.3203C37.684 18.3203 38.4375 19.0738 38.4375 20C38.4375 20.9262 37.684 21.6797 36.7578 21.6797Z" fill="black"/>
<path d="M22.7216 27.582C25.0119 27.582 26.8752 25.7186 26.8752 23.4284C26.8752 21.138 25.0119 19.2747 22.7216 19.2747C20.4312 19.2747 18.5679 21.138 18.5679 23.4284C18.5679 25.7187 20.4312 27.582 22.7216 27.582ZM22.7216 20.8372C24.1503 20.8372 25.3127 21.9995 25.3127 23.4284C25.3127 24.8571 24.1504 26.0195 22.7216 26.0195C21.2927 26.0195 20.1304 24.8571 20.1304 23.4284C20.1305 21.9995 21.2928 20.8372 22.7216 20.8372Z" fill="black"/>
<path d="M11.9038 17.8392C11.9038 19.4923 13.2487 20.8372 14.9018 20.8372C16.5549 20.8372 17.8997 19.4923 17.8997 17.8392C17.8997 16.1862 16.5549 14.8413 14.9018 14.8413C13.2487 14.8412 11.9038 16.1862 11.9038 17.8392ZM16.3372 17.8392C16.3372 18.6307 15.6932 19.2747 14.9017 19.2747C14.1102 19.2747 13.4662 18.6307 13.4662 17.8392C13.4662 17.0477 14.1101 16.4038 14.9017 16.4038C15.6932 16.4037 16.3372 17.0477 16.3372 17.8392Z" fill="black"/>
<path d="M22.1213 16.898C23.6354 16.898 24.8672 15.6662 24.8672 14.1522C24.8672 12.6381 23.6354 11.4062 22.1213 11.4062C20.6073 11.4062 19.3755 12.638 19.3755 14.1522C19.3754 15.6662 20.6072 16.898 22.1213 16.898ZM22.1213 12.9688C22.7739 12.9688 23.3047 13.4996 23.3047 14.1522C23.3047 14.8047 22.7738 15.3355 22.1213 15.3355C21.4688 15.3355 20.938 14.8047 20.938 14.1522C20.9379 13.4996 21.4688 12.9688 22.1213 12.9688Z" fill="black"/>
<path d="M15.0796 9.69218C15.2851 9.69218 15.4866 9.60859 15.6319 9.46328C15.7772 9.31797 15.8608 9.1164 15.8608 8.91093C15.8608 8.70468 15.7772 8.5039 15.6319 8.35781C15.4866 8.2125 15.2851 8.12968 15.0796 8.12968C14.8741 8.12968 14.6726 8.2125 14.5272 8.35781C14.3819 8.5039 14.2983 8.70468 14.2983 8.91093C14.2983 9.1164 14.3819 9.31797 14.5272 9.46328C14.6726 9.60859 14.8741 9.69218 15.0796 9.69218Z" fill="black"/>
</svg>
