<svg width="50" height="26" viewBox="0 0 50 26" fill="none" xmlns="http://www.w3.org/2000/svg">
<g clip-path="url(#clip0_336_60)">
<path d="M49.9308 12.5439C49.8947 12.2111 49.8377 11.8809 49.7603 11.5553L29.6865 11.5377C29.7763 10.7636 29.9762 10.0059 30.2799 9.28814C30.6943 8.29703 31.3027 7.39879 32.0693 6.64618C32.8242 5.91601 33.7163 5.34284 34.6942 4.95995C36.2659 4.28263 38.0093 4.11062 39.6831 4.46773C41.3568 4.82484 42.8782 5.69358 44.0366 6.95338L47.2065 3.85142C46.0828 2.63982 44.7185 1.67607 43.201 1.02188C41.5246 0.316852 39.7198 -0.0311139 37.9014 0.00012602C36.1849 -0.0102864 34.4827 0.313449 32.8898 0.953299C31.3651 1.56274 29.9753 2.46612 28.7994 3.61217C27.6278 4.7687 26.6903 6.14053 26.0385 7.65231C25.5031 8.88514 25.175 10.198 25.0671 11.5377H24.9363C24.8283 10.1979 24.4996 8.88496 23.9635 7.65231C23.3123 6.14021 22.3749 4.76827 21.2027 3.61217C20.0271 2.46578 18.6372 1.56236 17.1123 0.953299C13.793 -0.342554 10.1037 -0.319115 6.80113 1.01869C5.28387 1.67329 3.91964 2.63698 2.7956 3.84823L5.96615 6.95019C7.1567 5.73901 8.67693 4.90409 10.3379 4.54971C11.9989 4.19533 13.7273 4.33694 15.3086 4.95676C16.2864 5.33942 17.1784 5.91262 17.9328 6.64299C18.6998 7.39539 19.3085 8.29366 19.7229 9.28495C20.0267 10.0027 20.2266 10.76 20.3162 11.5342L0.242482 11.5521C0.165042 11.8777 0.108101 12.2076 0.0719764 12.5404C0.0273431 12.9248 0.00546396 13.3116 0.00658127 13.6986C-0.00227401 15.2055 0.24068 16.7034 0.725289 18.1302C1.20151 19.5147 1.96838 20.7813 2.97456 21.845C4.07546 23.0106 5.41163 23.9288 6.89444 24.5386C8.5524 25.1994 10.3254 25.5237 12.1099 25.4924C13.8261 25.5028 15.5279 25.1789 17.1202 24.5386C18.6454 23.9303 20.0355 23.0264 21.2105 21.8794C22.3832 20.7237 23.3208 19.352 23.9715 17.8396C24.305 17.0779 24.5573 16.283 24.7247 15.4685H25.2938C25.4612 16.2828 25.7131 17.0776 26.0456 17.8396C26.6969 19.3517 27.6344 20.7233 28.8066 21.8794C29.9819 23.0261 31.3719 23.9299 32.897 24.5386C34.4897 25.1788 36.192 25.5028 37.9086 25.4924C39.6927 25.5238 41.4652 25.1995 43.1227 24.5386C44.6058 23.9292 45.942 23.011 47.0426 21.845C48.0491 20.7814 48.8165 19.5148 49.2933 18.1302C49.7777 16.7033 50.0205 15.2055 50.0118 13.6986C50.0072 13.3124 49.9802 12.927 49.9308 12.5439ZM19.7184 16.2076C19.3025 17.202 18.6874 18.1009 17.9113 18.8489C17.1484 19.5771 16.2514 20.1502 15.27 20.5364C13.1784 21.3193 10.8763 21.3312 8.7767 20.5702C7.92976 20.2277 7.15062 19.7371 6.47575 19.1213C5.99509 18.678 5.5969 18.1528 5.29976 17.5704C4.95645 16.9071 4.69887 16.2028 4.53336 15.4745H19.9896C19.9124 15.7236 19.8223 15.9685 19.7197 16.2082L19.7184 16.2076ZM44.6984 17.5704C44.4012 18.1528 44.0031 18.6779 43.5226 19.1213C42.8477 19.7372 42.0684 20.2277 41.2214 20.5702C39.1218 21.3312 36.8198 21.3193 34.7282 20.5364C33.7467 20.15 32.8496 19.5769 32.0862 18.8489C31.3102 18.101 30.6955 17.2021 30.2799 16.2076C30.1767 15.9673 30.0862 15.7218 30.0087 15.472H37.7962H45.4654C45.2999 16.2013 45.0424 16.9066 44.699 17.571L44.6984 17.5704Z" fill="#2F8D46"/>
</g>
<defs>
<clipPath id="clip0_336_60">
<rect width="50" height="25.4962" fill="white"/>
</clipPath>
</defs>
</svg>
