<svg width="50" height="14" viewBox="0 0 50 14" fill="none" xmlns="http://www.w3.org/2000/svg">
<g clip-path="url(#clip0_335_45)">
<path d="M38.6392 2.32297L40.7363 3.93954L40.7293 6.15203L42.4334 5.03093L44.0707 6.18699L47.7483 0.423729L38.6392 2.32297ZM41.7207 4.47432L41.1234 5.4792L41.126 3.78793L46.5949 1.15468L41.7207 4.47432Z" fill="#00A5EC"/>
<path d="M0.423828 8.40818H1.36449V13.1338H0.423828V8.40818Z" fill="#00A5EC"/>
<path d="M2.31201 13.134V8.41229H2.6279L5.58623 11.3697V8.41229H6.52991V13.134H6.18432L3.25705 10.2067V13.134H2.31201Z" fill="#00A5EC"/>
<path d="M11.3624 8.41229V9.29356H9.78954V13.1336H8.84408V9.29356H7.27124V8.41229H11.3624Z" fill="#00A5EC"/>
<path d="M12.0515 13.1338V8.41521H15.5219V9.29644H12.9966V10.3013H14.8897V11.18H12.9966V12.253H15.5149V13.1351L12.0515 13.1338Z" fill="#00A5EC"/>
<path d="M19.3147 11.0739L20.4908 13.1336H19.4091L18.2774 11.1814H17.4154V13.1336H16.4717V8.41229H18.53C19.6318 8.41229 20.1827 8.86521 20.1824 9.7711C20.2133 10.0555 20.1434 10.3418 19.9849 10.5799C19.8263 10.8181 19.5891 10.9929 19.3147 11.0739ZM17.4154 10.3002H18.7388C19.1181 10.2932 19.3142 10.1206 19.3234 9.78115C19.3147 9.47004 19.1216 9.30928 18.7476 9.29572H17.4154V10.3006V10.3002Z" fill="#00A5EC"/>
<path d="M20.9832 13.134V8.41229H21.2964L24.2569 11.3697V8.41229H25.2007V13.134H24.8538L21.9265 10.2067V13.134H20.9832Z" fill="#00A5EC"/>
<path fill-rule="evenodd" clip-rule="evenodd" d="M33.571 7.83949C35.8312 7.51182 37.9633 6.73017 40.1645 5.99924C39.4829 6.54623 34.3929 7.97538 33.571 7.83949Z" fill="#666666"/>
<path fill-rule="evenodd" clip-rule="evenodd" d="M42.4317 5.03093L40.7275 6.15208L41.7202 4.47564L42.4317 5.03093Z" fill="#666666"/>
<path d="M28.7366 8.56941C28.9895 8.68271 29.2188 8.84263 29.4125 9.04085L28.7842 9.67132C28.676 9.54475 28.54 9.44483 28.3868 9.37937C28.2337 9.3139 28.0675 9.28462 27.9012 9.29381C27.5242 9.29381 27.2826 9.38119 27.1782 9.56076C27.1267 9.62576 27.0987 9.70619 27.0987 9.78907C27.0987 9.87191 27.1267 9.95237 27.1782 10.0173C27.3823 10.1874 27.6359 10.2869 27.9012 10.3009C28.2905 10.3389 28.664 10.4742 28.9874 10.6941C29.1527 10.8128 29.2846 10.9722 29.3701 11.1568C29.4556 11.3415 29.4919 11.5451 29.4754 11.7479C29.4723 11.9401 29.4236 12.1289 29.3332 12.2985C29.2428 12.4681 29.1133 12.6138 28.9555 12.7236C28.6098 12.9954 28.181 13.14 27.7413 13.133C27.3663 13.1444 26.9929 13.08 26.6434 12.9438C26.3613 12.8264 26.1048 12.6553 25.8879 12.44L26.5149 11.8122C26.6548 11.9533 26.8216 12.0651 27.0054 12.1408C27.1891 12.2167 27.3862 12.2549 27.5849 12.2534C28.0052 12.2534 28.266 12.1661 28.3713 11.9865C28.4223 11.9065 28.4494 11.8136 28.4494 11.7187C28.4494 11.6238 28.4223 11.5309 28.3713 11.4508C28.2665 11.273 28.0065 11.162 27.5849 11.1201C27.2178 11.0817 26.8635 10.9636 26.5468 10.7741C26.3863 10.6703 26.2575 10.5244 26.1743 10.3523C26.091 10.1803 26.0567 9.98869 26.0749 9.79843C26.0718 9.59924 26.1193 9.4025 26.2131 9.2267C26.3068 9.05093 26.4438 8.90187 26.611 8.79356C26.9301 8.55437 27.3164 8.42195 27.7151 8.41521C28.0624 8.39894 28.4095 8.45132 28.7366 8.56941Z" fill="#666666"/>
<path d="M30.3193 13.1344V8.41271H31.2644V10.3006H33.4646V8.40877H34.411V13.13L33.4646 13.1344V11.1823H31.2644V13.1344H30.3193Z" fill="#666666"/>
<path d="M35.1787 13.1344L37.0662 8.41271H38.0112L39.8969 13.1313L38.892 13.1357L38.6085 12.4122H36.4676L36.184 13.1357L35.1787 13.1344ZM37.5642 9.67144L36.846 11.4663H38.2624L37.5642 9.67144Z" fill="#666666"/>
<path d="M41.5581 8.41271V12.2523H44.0764V13.1344H40.6135V8.41271H41.5581Z" fill="#666666"/>
<path d="M44.605 13.1344L46.4948 8.41271H47.4385L49.3241 13.1313L48.319 13.1357L48.0389 12.4108H45.8982L45.6152 13.1344H44.605ZM46.9902 9.67144L46.2724 11.4663H47.6893L46.9902 9.67144Z" fill="#666666"/>
</g>
<defs>
<clipPath id="clip0_335_45">
<rect width="50" height="13.5593" fill="white"/>
</clipPath>
</defs>
</svg>
