<svg width="36" height="38" viewBox="0 0 36 38" fill="none" xmlns="http://www.w3.org/2000/svg">
<path d="M18.0374 13.5764C18.8216 13.5764 19.4669 13.1718 19.554 12.6493L20.3286 3.96241C20.3286 3.1036 19.3156 2.39871 18.0403 2.39871C16.7669 2.39871 15.7549 3.1036 15.7549 3.96241L16.5275 12.6493C16.6137 13.1718 17.259 13.5764 18.0403 13.5764H18.0372" fill="#FDBB30"/>
<path d="M13.3057 16.2896C13.6992 15.617 13.6686 14.8599 13.255 14.5245L6.05886 9.51614C5.31105 9.08673 4.18893 9.60446 3.55222 10.6998C2.9136 11.7933 3.02659 13.0159 3.77339 13.4453L11.7403 17.1266C12.2391 17.3099 12.918 16.9574 13.3086 16.2849L13.3055 16.2894" fill="#FDBB30"/>
<path d="M22.773 16.2849C23.1656 16.9575 23.8415 17.31 24.3404 17.1266L32.3082 13.4453C33.0589 13.0159 33.1661 11.7933 32.5323 10.6999C31.8927 9.60453 30.7687 9.08676 30.0228 9.51616L22.8266 14.5246C22.4149 14.8599 22.3843 15.6171 22.7759 16.2896L22.7729 16.2851" fill="#FDBB30"/>
<path d="M18.0374 24.4264C18.8216 24.4264 19.4669 24.8283 19.554 25.3508L20.3286 34.0366C20.3286 34.8973 19.3156 35.6013 18.0403 35.6013C16.7669 35.6013 15.7549 34.8973 15.7549 34.0366L16.5275 25.3508C16.6137 24.8283 17.259 24.4264 18.0403 24.4264H18.0372" fill="#FDBB30"/>
<path d="M22.773 21.7132C23.1656 21.0397 23.8415 20.6891 24.3404 20.8753L32.3082 24.5528C33.0589 24.9831 33.1661 26.2067 32.5323 27.3021C31.8927 28.3936 30.7687 28.9123 30.0228 28.4839L22.8266 23.4802C22.4149 23.141 22.3843 22.3839 22.7759 21.7123L22.7729 21.713" fill="#FDBB30"/>
<path d="M13.3057 21.7122C13.6992 22.3839 13.6686 23.141 13.255 23.4802L6.05885 28.4838C5.31108 28.9123 4.18896 28.3936 3.55225 27.302C2.9136 26.2067 3.02658 24.9831 3.77338 24.5527L11.7403 20.8753C12.2391 20.6891 12.918 21.0396 13.3086 21.7132L13.3055 21.7124" fill="#FDBB30"/>
</svg>
